<?xml version="1.0" encoding="UTF-8" standalone="no"?>
<!DOCTYPE svg PUBLIC "-//W3C//DTD SVG 1.1//EN" "http://www.w3.org/Graphics/SVG/1.1/DTD/svg11.dtd">
<svg width="100%" height="100%" viewBox="0 0 512 512" version="1.1" xmlns="http://www.w3.org/2000/svg" xmlns:xlink="http://www.w3.org/1999/xlink" xml:space="preserve" xmlns:serif="http://www.serif.com/" style="fill-rule:evenodd;clip-rule:evenodd;stroke-linejoin:round;stroke-miterlimit:2;">
    <g id="path846" transform="matrix(5.63971,0,0,5.63971,-2454.18,-2398.87)">
        <path d="M506.001,452.763C505.857,452.903 503.476,455.193 499.44,457.522C494.931,460.128 488.411,462.753 480.554,462.753C479.157,462.753 477.8,462.676 476.49,462.516C475.389,462.387 474.628,462.248 474.623,462.253C474.593,462.253 472.186,463.175 471.496,465.582C470.802,468 471.792,469.533 471.805,469.535C473.569,469.922 477.645,470.43 480.554,470.43C484.618,470.43 488.357,469.857 491.727,468.963C491.749,469.474 491.765,469.978 491.768,470.461C491.791,472.545 491.647,474.627 491.34,476.689C491.257,477.255 491.157,477.818 491.04,478.378C490.999,478.565 490.966,478.699 490.946,478.785C490.376,480.915 491.588,483.02 493.636,483.569C495.684,484.121 497.791,482.909 498.343,480.861C498.404,480.621 499.496,476.517 499.448,470.402C499.433,469.019 499.363,467.637 499.234,466.26C500.614,465.628 501.963,464.932 503.279,464.176C508.381,461.224 511.261,458.357 511.433,458.189C512.657,456.958 512.907,455.061 512.042,453.556C511.873,453.264 511.666,452.997 511.426,452.76C509.928,451.26 507.497,451.261 506.001,452.763ZM469.336,470.809C469.336,465.597 470.322,458.641 474.252,451.838C474.929,450.66 475.676,449.524 476.487,448.434C477.153,447.545 477.648,446.957 477.652,446.948C477.667,446.921 478.067,444.38 476.332,442.575C474.585,440.767 472.76,440.856 472.752,440.867C471.536,442.201 469.058,445.481 467.6,447.997C465.718,451.266 464.267,454.766 463.287,458.409C462.842,458.18 462.402,457.941 461.966,457.694C460.151,456.671 458.42,455.506 456.789,454.21C456.338,453.855 455.9,453.485 455.475,453.101C455.337,452.975 455.231,452.882 455.172,452.821C453.611,451.26 451.185,451.26 449.68,452.757C448.18,454.256 448.178,456.688 449.677,458.189C449.852,458.36 452.864,461.358 458.184,464.375C459.386,465.055 460.617,465.684 461.872,466.26C461.722,467.875 461.658,469.402 461.658,470.809C461.66,476.697 462.705,480.627 462.766,480.861C464.096,485.806 471.513,483.812 470.183,478.868C470.131,478.677 469.334,475.47 469.337,470.809L469.336,470.809ZM472.882,438.096C477.397,440.702 482.929,445.03 486.855,451.838C487.537,453.012 488.147,454.226 488.682,455.474C489.121,456.494 489.386,457.217 489.389,457.225C489.404,457.251 491.406,458.873 493.837,458.267C496.273,457.661 497.112,456.036 497.108,456.023C496.557,454.303 494.959,450.517 493.507,447.996C491.616,444.732 489.31,441.727 486.647,439.056C487.083,438.779 487.508,438.514 487.927,438.27C489.719,437.209 491.593,436.291 493.532,435.527C494.228,435.251 494.784,435.06 495.149,434.948C495.327,434.886 495.461,434.845 495.541,434.822C497.672,434.248 498.891,432.147 498.344,430.1C497.798,428.051 495.695,426.833 493.646,427.379C493.406,427.445 489.304,428.551 484.035,431.652C482.842,432.353 481.681,433.106 480.554,433.909C479.316,433.027 478.038,432.204 476.723,431.443C471.621,428.501 467.696,427.442 467.465,427.38C465.414,426.832 463.308,428.05 462.761,430.1C462.218,432.149 463.435,434.25 465.481,434.798C465.672,434.851 468.846,435.766 472.882,438.097L472.882,438.096Z" style="fill:rgb(51,153,204);"/>
    </g>
    <g transform="matrix(1.39332,0,0,1.39332,46.0679,-178.251)">
        <path d="M106.069,421.329C106.414,421.961 107.047,422.364 107.737,422.364C108.082,422.364 108.427,422.249 108.715,422.076C109.347,421.731 109.692,421.041 109.692,420.351C109.692,420.006 109.635,419.718 109.462,419.431L100.548,403.672C106.069,402.81 109.52,398.726 109.52,392.86C109.52,389.467 108.427,386.591 106.357,384.52C104.344,382.507 101.583,381.472 98.305,381.472L88.068,381.472C86.572,381.472 85.364,382.68 85.364,384.175L85.364,420.351C85.364,421.444 86.285,422.364 87.377,422.364C88.47,422.364 89.39,421.444 89.39,420.351L89.39,403.845L96.177,403.845L106.069,421.329ZM89.39,399.991L89.39,385.326L98.19,385.326C100.375,385.326 102.216,385.958 103.539,387.281C104.804,388.546 105.494,390.559 105.494,392.86C105.494,395.103 104.861,396.943 103.596,398.151C102.331,399.359 100.49,399.991 98.19,399.991L89.39,399.991Z" style="fill:rgb(51,153,204);fill-rule:nonzero;"/>
        <path d="M134.711,401.142C134.711,395.275 130.11,392.4 124.703,392.4C121.885,392.4 118.895,393.032 116.191,394.7C115.559,395.103 115.214,395.735 115.214,396.426C115.214,397.576 116.134,398.266 117.169,398.266C117.514,398.266 117.802,398.151 118.089,397.978C120.275,396.713 122.403,396.023 124.703,396.023C128.327,396.023 130.8,397.806 130.8,401.199L130.8,404.823L124.243,404.823C120.735,404.823 118.032,405.513 116.249,407.123C114.581,408.676 113.718,410.804 113.718,413.507C113.718,416.21 114.581,418.396 116.249,419.891C118.032,421.501 120.735,422.364 124.243,422.364C127.234,422.364 130.11,421.846 132.87,420.926C133.963,420.581 134.711,419.546 134.711,418.396L134.711,401.142ZM130.8,417.763C128.729,418.396 126.486,418.741 124.243,418.741C118.377,418.741 117.629,415.808 117.629,413.507C117.629,411.206 118.377,408.446 124.243,408.446L130.8,408.446L130.8,417.763Z" style="fill:rgb(51,153,204);fill-rule:nonzero;"/>
        <path d="M151.792,422.364C154.84,422.364 157.716,421.846 160.476,420.926C161.569,420.581 162.317,419.546 162.317,418.396L162.317,382.853C162.317,381.76 161.454,380.897 160.361,380.897C159.269,380.897 158.406,381.76 158.406,382.853L158.406,394.125C156.393,393.032 154.15,392.4 151.792,392.4C145.408,392.4 141.325,396.541 141.325,402.925L141.325,411.839C141.325,418.108 145.523,422.364 151.792,422.364ZM145.235,402.637C145.235,398.496 147.709,396.023 151.792,396.023C154.265,396.023 156.623,396.656 158.406,398.324L158.406,417.763C156.335,418.396 154.092,418.741 151.792,418.741C147.709,418.741 145.235,416.268 145.235,412.127L145.235,402.637Z" style="fill:rgb(51,153,204);fill-rule:nonzero;"/>
        <path d="M171.001,420.409C171.001,421.501 171.864,422.364 172.957,422.364C174.049,422.364 174.912,421.501 174.912,420.409L174.912,394.355C174.912,393.32 174.049,392.4 172.957,392.4C171.864,392.4 171.001,393.32 171.001,394.355L171.001,420.409ZM172.957,386.131C174.395,386.131 175.545,384.923 175.545,383.485C175.545,382.047 174.395,380.897 172.957,380.897C171.519,380.897 170.369,382.047 170.369,383.485C170.369,384.923 171.519,386.131 172.957,386.131Z" style="fill:rgb(51,153,204);fill-rule:nonzero;"/>
        <path d="M204.531,403.5C204.531,396.886 200.103,392.4 193.489,392.4C186.875,392.4 182.446,396.886 182.446,403.5L182.446,411.264C182.446,417.878 186.875,422.364 193.489,422.364C200.103,422.364 204.531,417.878 204.531,411.264L204.531,403.5ZM200.621,411.552C200.621,416.038 197.975,418.741 193.489,418.741C189.003,418.741 186.357,416.038 186.357,411.552L186.357,403.212C186.357,398.726 189.003,396.023 193.489,396.023C197.975,396.023 200.621,398.726 200.621,403.212L200.621,411.552Z" style="fill:rgb(51,153,204);fill-rule:nonzero;"/>
        <path d="M215.976,419.546C215.976,417.993 214.711,416.785 213.158,416.785C211.663,416.785 210.398,417.993 210.398,419.546C210.398,421.099 211.663,422.364 213.158,422.364C214.711,422.364 215.976,421.099 215.976,419.546Z" style="fill:rgb(51,153,204);fill-rule:nonzero;"/>
        <path d="M79.843,472.113C79.843,473.205 80.763,474.126 81.856,474.126C82.949,474.126 83.869,473.205 83.869,472.113L83.869,434.672C83.869,433.579 82.949,432.659 81.856,432.659C80.763,432.659 79.843,433.579 79.843,434.672L79.843,472.113Z" style="fill:rgb(51,153,204);fill-rule:nonzero;"/>
        <path d="M109.29,472.17C109.29,473.263 110.153,474.126 111.245,474.126C112.338,474.126 113.201,473.263 113.201,472.17L113.201,454.686C113.201,448.417 109.002,444.161 102.733,444.161C99.685,444.161 96.752,444.622 94.049,445.599C92.956,446.002 92.208,446.98 92.208,448.13L92.208,472.17C92.208,473.263 93.071,474.126 94.164,474.126C95.257,474.126 96.119,473.263 96.119,472.17L96.119,448.762C98.19,448.13 100.433,447.785 102.733,447.785C106.817,447.785 109.29,450.258 109.29,454.399L109.29,472.17Z" style="fill:rgb(51,153,204);fill-rule:nonzero;"/>
        <path d="M136.896,475.851C136.896,479.992 134.423,482.753 130.34,482.753C128.097,482.753 125.854,482.062 123.841,481.2C123.553,481.085 123.381,481.027 123.093,481.027C122,481.027 121.195,481.89 121.195,482.925C121.195,483.673 121.655,484.363 122.345,484.651C124.876,485.743 127.521,486.376 130.34,486.376C136.609,486.376 140.807,482.178 140.807,475.851L140.807,448.13C140.807,446.98 140.059,446.002 138.967,445.599C136.263,444.622 133.33,444.161 130.34,444.161C124.013,444.161 119.815,448.417 119.815,454.686L119.815,463.601C119.815,469.87 124.013,474.126 130.34,474.126C132.64,474.126 134.883,473.493 136.896,472.113L136.896,475.851ZM136.896,467.914C135.113,469.582 132.755,470.502 130.34,470.502C126.199,470.502 123.726,468.029 123.726,463.888L123.726,454.399C123.726,450.258 126.199,447.785 130.34,447.785C132.583,447.785 134.826,448.13 136.896,448.762L136.896,467.914Z" style="fill:rgb(51,153,204);fill-rule:nonzero;"/>
        <path d="M165.998,460.38C167.493,460.38 168.701,459.172 168.701,457.677L168.701,454.686C168.701,448.417 164.502,444.161 158.233,444.161C151.907,444.161 147.709,448.417 147.709,454.686L147.709,463.601C147.709,469.87 151.907,474.126 158.233,474.126C161.109,474.126 163.87,473.551 166.458,472.285C167.148,471.94 167.551,471.308 167.551,470.56C167.551,469.525 166.688,468.719 165.595,468.719C165.308,468.719 165.077,468.777 164.79,468.892C162.719,469.812 160.534,470.502 158.233,470.502C154.092,470.502 151.619,467.742 151.619,463.601L151.619,460.38L165.998,460.38ZM164.79,456.757L151.619,456.757L151.619,454.399C151.619,450.258 154.092,447.785 158.233,447.785C162.317,447.785 164.79,450.258 164.79,454.399L164.79,456.757Z" style="fill:rgb(51,153,204);fill-rule:nonzero;"/>
        <path d="M184.574,461.53C186.99,462.566 188.198,463.831 188.198,466.246C188.198,468.892 185.782,470.502 183.079,470.502C180.779,470.502 178.766,469.87 176.925,469.065C176.638,468.95 176.408,468.834 176.12,468.834C174.97,468.834 174.165,469.64 174.165,470.675C174.165,471.48 174.567,472.113 175.315,472.458C177.5,473.493 179.916,474.126 182.907,474.126C188.198,474.126 192.109,470.387 192.109,465.614C192.109,462.105 189.808,459.345 186.357,457.965L180.951,455.779C179.686,455.261 178.075,454.111 178.075,451.811C178.075,448.877 180.779,447.785 183.022,447.785C185.207,447.785 187.277,448.245 189.003,449.05C189.29,449.165 189.52,449.223 189.751,449.223C190.843,449.223 191.706,448.475 191.706,447.44C191.706,446.634 191.246,445.944 190.498,445.599C188.543,444.737 186.3,444.161 183.482,444.161C178.363,444.161 174.165,447.21 174.165,451.983C174.165,456.067 176.465,458.137 179.168,459.287L184.574,461.53Z" style="fill:rgb(51,153,204);fill-rule:nonzero;"/>
        <path d="M198.78,466.246C198.78,470.905 202.173,474.126 206.314,474.126C207.407,474.126 208.5,474.011 209.593,473.838C210.57,473.666 211.203,472.86 211.203,471.94C211.203,470.79 210.168,470.1 209.362,470.1C208.787,470.1 207.177,470.33 206.314,470.33C204.301,470.33 202.691,468.834 202.691,466.361L202.691,448.475L209.305,448.475C210.34,448.475 211.203,447.727 211.203,446.634C211.203,445.542 210.34,444.737 209.305,444.737L202.691,444.737L202.691,434.614C202.691,433.522 201.828,432.659 200.736,432.659C199.643,432.659 198.78,433.522 198.78,434.614L198.78,466.246Z" style="fill:rgb(51,153,204);fill-rule:nonzero;"/>
        <path d="M221.498,471.308C221.498,469.755 220.232,468.547 218.68,468.547C217.184,468.547 215.919,469.755 215.919,471.308C215.919,472.86 217.184,474.126 218.68,474.126C220.232,474.126 221.498,472.86 221.498,471.308Z" style="fill:rgb(51,153,204);fill-rule:nonzero;"/>
    </g>
</svg>
